999
dxfrw 0.5.11
0
SECTION
2
HEADER
9
$ACADVER
1
AC1021
9
$HANDSEED
5
20000
9
$DWGCODEPAGE
3
ANSI_1252
9
$INSBASE
10
0
20
0
30
0
9
$EXTMIN
10
0
20
0
30
0
9
$EXTMAX
10
35
20
23
30
0
9
$LIMMIN
10
0
20
0
9
$LIMMAX
10
420
20
297
9
$ORTHOMODE
70
0
9
$LTSCALE
40
1
9
$TEXTSTYLE
7
STANDARD
9
$CLAYER
8
material
9
$DIMASZ
40
0.1
9
$DIMLFAC
40
1
9
$DIMSCALE
40
1
9
$DIMEXO
40
0.025
9
$DIMEXE
40
0.05
9
$DIMTXT
40
2.5
9
$DIMTSZ
40
0
9
$DIMAUNIT
70
0
9
$DIMADEC
70
2
9
$DIMLUNIT
70
2
9
$DIMSTYLE
2
STANDARD
9
$DIMGAP
40
0.625
9
$DIMTIH
70
0
9
$LUNITS
70
2
9
$LUPREC
70
4
9
$AUNITS
70
0
9
$AUPREC
70
2
9
$SPLINESEGS
70
8
9
$GRIDMODE
70
1
9
$SNAPSTYLE
70
0
9
$GRIDUNIT
10
0
20
0
9
$PINSBASE
10
0
20
0
30
0
9
$PLIMMIN
10
0
20
0
9
$PLIMMAX
10
1.9863308e-05
20
2.80924e-05
9
$INSUNITS
70
1
9
$PSVPSCALE
40
1
0
ENDSEC
0
SECTION
2
CLASSES
0
ENDSEC
0
SECTION
2
TABLES
0
TABLE
2
VPORT
5
8
330
0
100
AcDbSymbolTable
70
1
0
VPORT
5
31
330
2
100
AcDbSymbolTableRecord
100
AcDbViewportTableRecord
2
*ACTIVE
70
0
10
0
20
0
11
1
21
1
12
6.25008094818
22
5.00644239216
13
0
23
0
14
10
24
10
15
10
25
10
16
0
26
0
36
1
17
0
27
0
37
0
40
11.3521878446
41
2.34691011236
42
50
43
0
44
0
50
0
51
0
71
0
72
100
73
1
74
3
75
0
76
1
77
0
78
0
281
0
65
1
110
0
120
0
130
0
111
1
121
0
131
0
112
0
122
1
132
0
79
0
146
0
348
10020
60
7
61
5
292
1
282
1
141
0
142
0
63
250
421
3358443
0
ENDTAB
0
TABLE
2
LTYPE
5
5
330
0
100
AcDbSymbolTable
70
4
0
LTYPE
5
14
330
5
100
AcDbSymbolTableRecord
100
AcDbLinetypeTableRecord
2
ByBlock
70
0
3

72
65
73
0
40
0
0
LTYPE
5
15
330
5
100
AcDbSymbolTableRecord
100
AcDbLinetypeTableRecord
2
ByLayer
70
0
3

72
65
73
0
40
0
0
LTYPE
5
16
330
5
100
AcDbSymbolTableRecord
100
AcDbLinetypeTableRecord
2
Continuous
70
0
3
Solid line
72
65
73
0
40
0
0
LTYPE
5
32
330
5
100
AcDbSymbolTableRecord
100
AcDbLinetypeTableRecord
2
DOT
70
0
3
Dot . . . . . . . . . . . . . . . . . . . . . .
72
65
73
2
40
6.35
49
0
74
0
49
-6.35
74
0
0
LTYPE
5
33
330
5
100
AcDbSymbolTableRecord
100
AcDbLinetypeTableRecord
2
DOT2
70
0
3
Dot (.5x) .....................................
72
65
73
2
40
3.175
49
0
74
0
49
-3.175
74
0
0
LTYPE
5
34
330
5
100
AcDbSymbolTableRecord
100
AcDbLinetypeTableRecord
2
DOTX2
70
0
3
Dot (2x) .  .  .  .  .  .  .  .  .  .  .  .  .
72
65
73
2
40
12.7
49
0
74
0
49
-12.7
74
0
0
LTYPE
5
35
330
5
100
AcDbSymbolTableRecord
100
AcDbLinetypeTableRecord
2
DASHED
70
0
3
Dot . . . . . . . . . . . . . . . . . . . . . .
72
65
73
2
40
19.05
49
12.7
74
0
49
-6.35
74
0
0
LTYPE
5
36
330
5
100
AcDbSymbolTableRecord
100
AcDbLinetypeTableRecord
2
DASHED2
70
0
3
Dashed (.5x) _ _ _ _ _ _ _ _ _ _ _ _ _ _ _ _ _
72
65
73
2
40
9.525
49
6.35
74
0
49
-3.175
74
0
0
LTYPE
5
37
330
5
100
AcDbSymbolTableRecord
100
AcDbLinetypeTableRecord
2
DASHEDX2
70
0
3
Dashed (2x) ____  ____  ____  ____  ____  ___
72
65
73
2
40
38.1
49
25.4
74
0
49
-12.7
74
0
0
LTYPE
5
38
330
5
100
AcDbSymbolTableRecord
100
AcDbLinetypeTableRecord
2
DASHDOT
70
0
3
Dash dot __ . __ . __ . __ . __ . __ . __ . __
72
65
73
4
40
25.4
49
12.7
74
0
49
-6.35
74
0
49
0
74
0
49
-6.35
74
0
0
LTYPE
5
39
330
5
100
AcDbSymbolTableRecord
100
AcDbLinetypeTableRecord
2
DASHDOT2
70
0
3
Dash dot (.5x) _._._._._._._._._._._._._._._.
72
65
73
4
40
12.7
49
6.35
74
0
49
-3.175
74
0
49
0
74
0
49
-3.175
74
0
0
LTYPE
5
3A
330
5
100
AcDbSymbolTableRecord
100
AcDbLinetypeTableRecord
2
DASHDOTX2
70
0
3
Dash dot (2x) ____  .  ____  .  ____  .  ___
72
65
73
4
40
50.8
49
25.4
74
0
49
-12.7
74
0
49
0
74
0
49
-12.7
74
0
0
LTYPE
5
3B
330
5
100
AcDbSymbolTableRecord
100
AcDbLinetypeTableRecord
2
DIVIDE
70
0
3
Divide ____ . . ____ . . ____ . . ____ . . ____
72
65
73
6
40
31.75
49
12.7
74
0
49
-6.35
74
0
49
0
74
0
49
-6.35
74
0
49
0
74
0
49
-6.35
74
0
0
LTYPE
5
3C
330
5
100
AcDbSymbolTableRecord
100
AcDbLinetypeTableRecord
2
DIVIDE2
70
0
3
Divide (.5x) __..__..__..__..__..__..__..__.._
72
65
73
6
40
15.875
49
6.35
74
0
49
-3.175
74
0
49
0
74
0
49
-3.175
74
0
49
0
74
0
49
-3.175
74
0
0
LTYPE
5
3D
330
5
100
AcDbSymbolTableRecord
100
AcDbLinetypeTableRecord
2
DIVIDEX2
70
0
3
Divide (2x) ________  .  .  ________  .  .  _
72
65
73
6
40
63.5
49
25.4
74
0
49
-12.7
74
0
49
0
74
0
49
-12.7
74
0
49
0
74
0
49
-12.7
74
0
0
LTYPE
5
3E
330
5
100
AcDbSymbolTableRecord
100
AcDbLinetypeTableRecord
2
BORDER
70
0
3
Border __ __ . __ __ . __ __ . __ __ . __ __ .
72
65
73
6
40
44.45
49
12.7
74
0
49
-6.35
74
0
49
12.7
74
0
49
-6.35
74
0
49
0
74
0
49
-6.35
74
0
0
LTYPE
5
3F
330
5
100
AcDbSymbolTableRecord
100
AcDbLinetypeTableRecord
2
BORDER2
70
0
3
Border (.5x) __.__.__.__.__.__.__.__.__.__.__.
72
65
73
6
40
22.225
49
6.35
74
0
49
-3.175
74
0
49
6.35
74
0
49
-3.175
74
0
49
0
74
0
49
-3.175
74
0
0
LTYPE
5
40
330
5
100
AcDbSymbolTableRecord
100
AcDbLinetypeTableRecord
2
BORDERX2
70
0
3
Border (2x) ____  ____  .  ____  ____  .  ___
72
65
73
6
40
88.9
49
25.4
74
0
49
-12.7
74
0
49
25.4
74
0
49
-12.7
74
0
49
0
74
0
49
-12.7
74
0
0
LTYPE
5
41
330
5
100
AcDbSymbolTableRecord
100
AcDbLinetypeTableRecord
2
CENTER
70
0
3
Center ____ _ ____ _ ____ _ ____ _ ____ _ ____
72
65
73
4
40
50.8
49
31.75
74
0
49
-6.35
74
0
49
6.35
74
0
49
-6.35
74
0
0
LTYPE
5
42
330
5
100
AcDbSymbolTableRecord
100
AcDbLinetypeTableRecord
2
CENTER2
70
0
3
Center (.5x) ___ _ ___ _ ___ _ ___ _ ___ _ ___
72
65
73
4
40
28.575
49
19.05
74
0
49
-3.175
74
0
49
3.175
74
0
49
-3.175
74
0
0
LTYPE
5
43
330
5
100
AcDbSymbolTableRecord
100
AcDbLinetypeTableRecord
2
CENTERX2
70
0
3
Center (2x) ________  __  ________  __  _____
72
65
73
4
40
101.6
49
63.5
74
0
49
-12.7
74
0
49
12.7
74
0
49
-12.7
74
0
0
ENDTAB
0
TABLE
2
LAYER
5
2
330
0
100
AcDbSymbolTable
70
1
0
LAYER
5
10
330
2
100
AcDbSymbolTableRecord
100
AcDbLayerTableRecord
2
0
70
0
62
7
6
CONTINUOUS
370
0
390
F
0
LAYER
5
44
330
2
100
AcDbSymbolTableRecord
100
AcDbLayerTableRecord
2
engrave
70
0
62
6
6
CONTINUOUS
370
0
390
F
0
LAYER
5
45
330
2
100
AcDbSymbolTableRecord
100
AcDbLayerTableRecord
2
lasercutter
70
0
62
5
6
CONTINUOUS
370
0
390
F
0
LAYER
5
46
330
2
100
AcDbSymbolTableRecord
100
AcDbLayerTableRecord
2
material
70
0
62
4
6
CONTINUOUS
370
0
390
F
0
LAYER
5
47
330
2
100
AcDbSymbolTableRecord
100
AcDbLayerTableRecord
2
vector
70
0
62
3
6
CONTINUOUS
370
0
390
F
0
ENDTAB
0
TABLE
2
STYLE
5
3
330
0
100
AcDbSymbolTable
70
3
0
STYLE
5
48
330
2
100
AcDbSymbolTableRecord
100
AcDbTextStyleTableRecord
2
Standard
70
0
40
0
41
1
50
0
71
0
42
1
3
txt
4

0
ENDTAB
0
TABLE
2
VIEW
5
6
330
0
100
AcDbSymbolTable
70
0
0
ENDTAB
0
TABLE
2
UCS
5
7
330
0
100
AcDbSymbolTable
70
0
0
ENDTAB
0
TABLE
2
APPID
5
9
330
0
100
AcDbSymbolTable
70
1
0
APPID
5
12
330
9
100
AcDbSymbolTableRecord
100
AcDbRegAppTableRecord
2
ACAD
70
0
0
ENDTAB
0
TABLE
2
DIMSTYLE
5
A
330
0
100
AcDbSymbolTable
70
1
100
AcDbDimStyleTable
71
1
0
DIMSTYLE
105
49
330
A
100
AcDbSymbolTableRecord
100
AcDbDimStyleTableRecord
2
Standard
70
0
40
1
41
0.1
42
0.025
43
0.38
44
0.05
45
0
46
0
47
0
48
0
140
2.5
141
0.09
142
0
143
25.4
144
1
145
0
146
1
147
0.625
148
0
71
0
72
0
73
0
74
1
75
0
76
0
77
0
78
0
79
0
170
0
171
2
172
0
173
0
174
0
175
0
176
0
177
0
178
0
179
0
271
4
272
4
273
2
274
2
275
0
276
0
277
2
278
46
279
0
280
0
281
0
282
0
283
1
284
0
285
0
286
0
288
0
289
3
340
Standard
341

371
-2
372
-2
0
ENDTAB
0
TABLE
2
BLOCK_RECORD
5
1
330
0
100
AcDbSymbolTable
70
2
0
BLOCK_RECORD
5
1F
330
1
100
AcDbSymbolTableRecord
100
AcDbBlockTableRecord
2
*Model_Space
70
0
280
1
281
0
0
BLOCK_RECORD
5
1E
330
1
100
AcDbSymbolTableRecord
100
AcDbBlockTableRecord
2
*Paper_Space
70
0
280
1
281
0
0
ENDTAB
0
ENDSEC
0
SECTION
2
BLOCKS
0
BLOCK
5
20
330
1F
100
AcDbEntity
8
0
100
AcDbBlockBegin
2
*Model_Space
70
0
10
0
20
0
30
0
3
*Model_Space
1

0
ENDBLK
5
21
330
1F
100
AcDbEntity
8
0
100
AcDbBlockEnd
0
BLOCK
5
1C
330
1B
100
AcDbEntity
8
0
100
AcDbBlockBegin
2
*Paper_Space
70
0
10
0
20
0
30
0
3
*Paper_Space
1

0
ENDBLK
5
1D
330
1F
100
AcDbEntity
8
0
100
AcDbBlockEnd
0
ENDSEC
0
SECTION
2
ENTITIES
0
LINE
5
4A
100
AcDbEntity
8
engrave
6
ByLayer
62
256
370
-1
100
AcDbLine
10
7.67101406871
20
3.01819805153
11
7.4235266953
21
3.26568542495
0
LINE
5
4B
100
AcDbEntity
8
engrave
6
ByLayer
62
256
370
-1
100
AcDbLine
10
8.04779076401
20
3.01819805153
11
8.29527813742
21
3.26568542495
0
LINE
5
4C
100
AcDbEntity
8
vector
6
ByLayer
62
256
370
-1
100
AcDbLine
10
7.57655970389
20
2.85480970389
11
7.45940241636
21
2.85480970389
0
LINE
5
4D
100
AcDbEntity
8
vector
6
ByLayer
62
256
370
-1
100
AcDbLine
10
8.14224512883
20
2.85480970389
11
8.25940241636
21
2.85480970389
0
ARC
5
4E
100
AcDbEntity
8
vector
6
ByLayer
62
256
370
-1
100
AcDbCircle
10
7.85940241636
20
2.85480970389
40
0
100
AcDbArc
50
45
51
45
0
ARC
5
4F
100
AcDbEntity
8
vector
6
ByLayer
62
256
370
-1
100
AcDbCircle
10
7.85940241636
20
1.22980970389
40
0.4
100
AcDbArc
50
0
51
180
0
ARC
5
50
100
AcDbEntity
8
vector
6
ByLayer
62
256
370
-1
100
AcDbCircle
10
7.35940241636
20
0.967492973861
40
0.1
100
AcDbArc
50
255.161714043
51
0
0
ARC
5
51
100
AcDbEntity
8
vector
6
ByLayer
62
256
370
-1
100
AcDbCircle
10
8.35940241636
20
0.967492973861
40
0.1
100
AcDbArc
50
180
51
284.838285957
0
LINE
5
52
100
AcDbEntity
8
vector
6
ByLayer
62
256
370
-1
100
AcDbLine
10
7.45940241636
20
1.22980970389
11
7.45940241636
21
0.967492973861
0
LINE
5
53
100
AcDbEntity
8
vector
6
ByLayer
62
256
370
-1
100
AcDbLine
10
8.25940241636
20
1.22980970389
11
8.25940241636
21
0.967492973861
0
ARC
5
54
100
AcDbEntity
8
vector
6
ByLayer
62
256
370
-1
100
AcDbCircle
10
7.82494522067
20
2.59228205147
40
0.01
100
AcDbArc
50
329.477512186
51
45
0
ARC
5
55
100
AcDbEntity
8
vector
6
ByLayer
62
256
370
-1
100
AcDbCircle
10
7.89385961205
20
2.59228205147
40
0.01
100
AcDbArc
50
135
51
210.522487814
0
LINE
5
56
100
AcDbEntity
8
vector
6
ByLayer
62
256
370
-1
100
AcDbLine
10
7.57655970389
20
2.85480970389
11
7.83201628848
21
2.59935311929
0
ARC
5
57
100
AcDbEntity
8
vector
6
ByLayer
62
256
370
-1
100
AcDbCircle
10
7.85940241636
20
2.57196699141
40
0.03
100
AcDbArc
50
149.477506216
51
30.5224878141
0
LINE
5
58
100
AcDbEntity
8
vector
6
ByLayer
62
256
370
-1
100
AcDbLine
10
7.88678854424
20
2.59935311929
11
8.14224512883
21
2.85480970389
0
ARC
5
59
100
AcDbEntity
8
vector
6
ByLayer
62
256
370
-1
100
AcDbCircle
10
6.35560718654
20
1.60959311783
40
0.1
100
AcDbArc
50
135
51
219.626432327
0
ARC
5
5A
100
AcDbEntity
8
vector
6
ByLayer
62
256
370
-1
100
AcDbCircle
10
9.36319764618
20
1.60959311783
40
0.1
100
AcDbArc
50
320.373567673
51
45
0
LINE
5
5B
100
AcDbEntity
8
vector
6
ByLayer
62
256
370
-1
100
AcDbLine
10
7.45940241636
20
2.85480970389
11
6.28489650842
21
1.68030379595
0
ARC
5
5C
100
AcDbEntity
8
vector
6
ByLayer
62
256
370
-1
100
AcDbCircle
10
7.85940241636
20
2.85480970389
40
2.05242527115
100
AcDbArc
50
219.626431515
51
255.161714043
0
ARC
5
5D
100
AcDbEntity
8
vector
6
ByLayer
62
256
370
-1
100
AcDbCircle
10
7.85940241636
20
2.85480970389
40
2.05242527115
100
AcDbArc
50
284.838285957
51
320.373567673
0
LINE
5
5E
100
AcDbEntity
8
vector
6
ByLayer
62
256
370
-1
100
AcDbLine
10
8.25940241636
20
2.85480970389
11
9.43390833477
21
1.68030378547
0
CIRCLE
5
5F
100
AcDbEntity
8
vector
6
ByLayer
62
256
370
-1
100
AcDbCircle
10
7.18765097423
20
2.18305826176
40
0.072
0
CIRCLE
5
60
100
AcDbEntity
8
vector
6
ByLayer
62
256
370
-1
100
AcDbCircle
10
6.83409758364
20
1.82950487117
40
0.072
0
CIRCLE
5
61
100
AcDbEntity
8
vector
6
ByLayer
62
256
370
-1
100
AcDbCircle
10
8.53115385849
20
2.18305826176
40
0.072
0
CIRCLE
5
62
100
AcDbEntity
8
vector
6
ByLayer
62
256
370
-1
100
AcDbCircle
10
8.88470724908
20
1.82950487117
40
0.072
0
ARC
5
63
100
AcDbEntity
8
vector
6
ByLayer
62
256
370
-1
100
AcDbCircle
10
6.63964321881
20
4.62027957955
40
0.05
100
AcDbArc
50
135
51
225
0
ARC
5
64
100
AcDbEntity
8
vector
6
ByLayer
62
256
370
-1
100
AcDbCircle
10
6.85177525317
20
4.83241161391
40
0.05
100
AcDbArc
50
45
51
135
0
LINE
5
65
100
AcDbEntity
8
vector
6
ByLayer
62
256
370
-1
100
AcDbLine
10
6.60428787975
20
4.65563491861
11
6.81641991411
21
4.86776695297
0
LINE
5
66
100
AcDbEntity
8
vector
6
ByLayer
62
256
370
-1
100
AcDbLine
10
7.66494805153
20
3.52426406871
11
6.60428787975
21
4.58492424049
0
CIRCLE
5
67
100
AcDbEntity
8
vector
6
ByLayer
62
256
370
-1
100
AcDbCircle
10
7.62959271247
20
3.84246212025
40
0.072
0
CIRCLE
5
68
100
AcDbEntity
8
vector
6
ByLayer
62
256
370
-1
100
AcDbCircle
10
6.92248593129
20
4.54956890143
40
0.072
0
ARC
5
69
100
AcDbEntity
8
vector
6
ByLayer
62
256
370
-1
100
AcDbCircle
10
8.86702957955
20
4.83241161391
40
0.05
100
AcDbArc
50
45
51
135
0
ARC
5
6A
100
AcDbEntity
8
vector
6
ByLayer
62
256
370
-1
100
AcDbCircle
10
9.07916161391
20
4.62027957955
40
0.05
100
AcDbArc
50
315
51
45
0
LINE
5
6B
100
AcDbEntity
8
vector
6
ByLayer
62
256
370
-1
100
AcDbLine
10
8.90238491861
20
4.86776695297
11
9.11451695297
21
4.65563491861
0
LINE
5
6C
100
AcDbEntity
8
vector
6
ByLayer
62
256
370
-1
100
AcDbLine
10
9.11451695297
20
4.58492424049
11
8.05385678119
21
3.52426406871
0
CIRCLE
5
6D
100
AcDbEntity
8
vector
6
ByLayer
62
256
370
-1
100
AcDbCircle
10
8.08921212025
20
3.84246212025
40
0.072
0
CIRCLE
5
6E
100
AcDbEntity
8
vector
6
ByLayer
62
256
370
-1
100
AcDbCircle
10
8.79631890143
20
4.54956890143
40
0.072
0
LINE
5
6F
100
AcDbEntity
8
vector
6
ByLayer
62
256
370
-1
100
AcDbLine
10
7.66494805153
20
3.52426406871
11
8.05385678119
21
3.52426406871
0
ARC
5
70
100
AcDbEntity
8
vector
6
ByLayer
62
256
370
-1
100
AcDbCircle
10
7.57959271266
20
4.24601551065
40
0.05
100
AcDbArc
50
225
51
269.999999481
0
ARC
5
71
100
AcDbEntity
8
vector
6
ByLayer
62
256
370
-1
100
AcDbCircle
10
8.13921211499
20
4.24601550559
40
0.05
100
AcDbArc
50
269.999999481
51
315
0
LINE
5
72
100
AcDbEntity
8
vector
6
ByLayer
62
256
370
-1
100
AcDbLine
10
6.88713059223
20
4.86776695297
11
7.5442373736
21
4.21066017159
0
LINE
5
73
100
AcDbEntity
8
vector
6
ByLayer
62
256
370
-1
100
AcDbLine
10
7.57959271221
20
4.19601551065
11
8.13921211454
21
4.19601550559
0
LINE
5
74
100
AcDbEntity
8
vector
6
ByLayer
62
256
370
-1
100
AcDbLine
10
8.17456745405
20
4.21066016653
11
8.83167424049
21
4.86776695297
0
LINE
5
75
100
AcDbEntity
8
vector
6
ByLayer
62
256
370
-1
100
AcDbLine
10
7.67101406871
20
3.01819805153
11
7.75940241636
21
3.10658639918
0
LINE
5
76
100
AcDbEntity
8
vector
6
ByLayer
62
256
370
-1
100
AcDbLine
10
7.67101406871
20
3.01819805153
11
7.58262572106
21
2.92980970389
0
LINE
5
77
100
AcDbEntity
8
vector
6
ByLayer
62
256
370
-1
100
AcDbLine
10
7.58262572106
20
2.92980970389
11
7.35940241636
21
2.92980970389
0
LINE
5
78
100
AcDbEntity
8
vector
6
ByLayer
62
256
370
-1
100
AcDbLine
10
6.57287723753
20
4.21815825921
11
7.35069469683
21
3.4403407999
0
LINE
5
79
100
AcDbEntity
8
vector
6
ByLayer
62
256
370
-1
100
AcDbLine
10
6.47105386104
20
4.11633488272
11
7.24887132034
21
3.33851742341
0
ARC
5
7A
100
AcDbEntity
8
vector
6
ByLayer
62
256
370
-1
100
AcDbCircle
10
7.29978300859
20
3.38942911166
40
0.072
100
AcDbArc
50
225
51
45
0
ARC
5
7B
100
AcDbEntity
8
vector
6
ByLayer
62
256
370
-1
100
AcDbCircle
10
6.52196554928
20
4.16724657096
40
0.072
100
AcDbArc
50
45
51
225
0
ARC
5
7C
100
AcDbEntity
8
vector
6
ByLayer
62
256
370
-1
100
AcDbCircle
10
6.26338690552
20
4.16724657096
40
0.1
100
AcDbArc
50
135
51
225
0
ARC
5
7D
100
AcDbEntity
8
vector
6
ByLayer
62
256
370
-1
100
AcDbCircle
10
6.52196554928
20
4.42582521472
40
0.1
100
AcDbArc
50
45
51
135
0
LINE
5
7E
100
AcDbEntity
8
vector
6
ByLayer
62
256
370
-1
100
AcDbLine
10
7.35940241636
20
2.92980970389
11
6.1926762274
21
4.09653589284
0
LINE
5
7F
100
AcDbEntity
8
vector
6
ByLayer
62
256
370
-1
100
AcDbLine
10
6.1926762274
20
4.23795724908
11
6.45125488205
21
4.49653590373
0
LINE
5
80
100
AcDbEntity
8
vector
6
ByLayer
62
256
370
-1
100
AcDbLine
10
7.75940241636
20
3.32980970389
11
6.5926762274
21
4.49653589284
0
LINE
5
81
100
AcDbEntity
8
vector
6
ByLayer
62
256
370
-1
100
AcDbLine
10
8.04779076401
20
3.01819805153
11
8.13617911166
21
2.92980970389
0
LINE
5
82
100
AcDbEntity
8
vector
6
ByLayer
62
256
370
-1
100
AcDbLine
10
8.13617911166
20
2.92980970389
11
8.35940241636
21
2.92980970389
0
LINE
5
83
100
AcDbEntity
8
vector
6
ByLayer
62
256
370
-1
100
AcDbLine
10
9.24775097168
20
4.11633488272
11
8.46993351238
21
3.33851742341
0
LINE
5
84
100
AcDbEntity
8
vector
6
ByLayer
62
256
370
-1
100
AcDbLine
10
9.14592759519
20
4.21815825921
11
8.36811013589
21
3.4403407999
0
ARC
5
85
100
AcDbEntity
8
vector
6
ByLayer
62
256
370
-1
100
AcDbCircle
10
8.41902182413
20
3.38942911166
40
0.072
100
AcDbArc
50
135
51
315
0
ARC
5
86
100
AcDbEntity
8
vector
6
ByLayer
62
256
370
-1
100
AcDbCircle
10
9.19683928344
20
4.16724657096
40
0.072
100
AcDbArc
50
315
51
135
0
ARC
5
87
100
AcDbEntity
8
vector
6
ByLayer
62
256
370
-1
100
AcDbCircle
10
9.19683928344
20
4.42582521472
40
0.1
100
AcDbArc
50
45
51
135
0
ARC
5
88
100
AcDbEntity
8
vector
6
ByLayer
62
256
370
-1
100
AcDbCircle
10
9.4554179272
20
4.16724657096
40
0.1
100
AcDbArc
50
315
51
45
0
LINE
5
89
100
AcDbEntity
8
vector
6
ByLayer
62
256
370
-1
100
AcDbLine
10
7.95940241636
20
3.32980970389
11
9.12612859444
21
4.49653588196
0
LINE
5
8A
100
AcDbEntity
8
vector
6
ByLayer
62
256
370
-1
100
AcDbLine
10
9.26754993784
20
4.49653591656
11
9.52612860532
21
4.23795724908
0
LINE
5
8B
100
AcDbEntity
8
vector
6
ByLayer
62
256
370
-1
100
AcDbLine
10
8.35940241636
20
2.92980970389
11
9.52612860532
21
4.09653589284
0
LINE
5
8C
100
AcDbEntity
8
vector
6
ByLayer
62
256
370
-1
100
AcDbLine
10
8.04779076401
20
3.01819805153
11
7.95940241636
21
3.10658639918
0
LINE
5
8D
100
AcDbEntity
8
vector
6
ByLayer
62
256
370
-1
100
AcDbLine
10
7.95940241636
20
3.10658639918
11
7.95940241636
21
3.32980970389
0
LINE
5
8E
100
AcDbEntity
8
vector
6
ByLayer
62
256
370
-1
100
AcDbLine
10
7.75940241636
20
3.10658639918
11
7.75940241636
21
3.32980970389
0
ARC
5
8F
100
AcDbEntity
8
vector
6
ByLayer
62
256
370
-1
100
AcDbCircle
10
5.75680050634
20
3.93743686708
40
0.05
100
AcDbArc
50
135
51
225
0
ARC
5
90
100
AcDbEntity
8
vector
6
ByLayer
62
256
370
-1
100
AcDbCircle
10
5.96893254069
20
4.14956890143
40
0.05
100
AcDbArc
50
45
51
135
0
ARC
5
91
100
AcDbEntity
8
vector
6
ByLayer
62
256
370
-1
100
AcDbCircle
10
6.81746067812
20
2.8767766953
40
0.05
100
AcDbArc
50
225
51
315
0
ARC
5
92
100
AcDbEntity
8
vector
6
ByLayer
62
256
370
-1
100
AcDbCircle
10
7.02959271247
20
3.08890872965
40
0.05
100
AcDbArc
50
315
51
45
0
LINE
5
93
100
AcDbEntity
8
vector
6
ByLayer
62
256
370
-1
100
AcDbLine
10
5.72144516728
20
3.97279220614
11
5.93357720164
21
4.18492424049
0
LINE
5
94
100
AcDbEntity
8
vector
6
ByLayer
62
256
370
-1
100
AcDbLine
10
6.00428787975
20
4.18492424049
11
7.06494805153
21
3.12426406871
0
LINE
5
95
100
AcDbEntity
8
vector
6
ByLayer
62
256
370
-1
100
AcDbLine
10
7.06494805153
20
3.05355339059
11
6.85281601718
21
2.84142135624
0
LINE
5
96
100
AcDbEntity
8
vector
6
ByLayer
62
256
370
-1
100
AcDbLine
10
6.78210533906
20
2.84142135624
11
5.72144516728
21
3.90208152802
0
CIRCLE
5
97
100
AcDbEntity
8
vector
6
ByLayer
62
256
370
-1
100
AcDbCircle
10
6.74675
20
3.15961940777
40
0.072
0
CIRCLE
5
98
100
AcDbEntity
8
vector
6
ByLayer
62
256
370
-1
100
AcDbCircle
10
6.03964321881
20
3.86672618896
40
0.072
0
ARC
5
99
100
AcDbEntity
8
vector
6
ByLayer
62
256
370
-1
100
AcDbCircle
10
9.74987229203
20
4.14956890143
40
0.05
100
AcDbArc
50
45
51
135
0
ARC
5
9A
100
AcDbEntity
8
vector
6
ByLayer
62
256
370
-1
100
AcDbCircle
10
9.96200432638
20
3.93743686708
40
0.05
100
AcDbArc
50
315
51
45
0
ARC
5
9B
100
AcDbEntity
8
vector
6
ByLayer
62
256
370
-1
100
AcDbCircle
10
8.68921212025
20
3.08890872965
40
0.05
100
AcDbArc
50
135
51
225
0
ARC
5
9C
100
AcDbEntity
8
vector
6
ByLayer
62
256
370
-1
100
AcDbCircle
10
8.9013441546
20
2.8767766953
40
0.05
100
AcDbArc
50
225
51
315
0
LINE
5
9D
100
AcDbEntity
8
vector
6
ByLayer
62
256
370
-1
100
AcDbLine
10
9.78522763109
20
4.18492424049
11
9.99735966544
21
3.97279220614
0
LINE
5
9E
100
AcDbEntity
8
vector
6
ByLayer
62
256
370
-1
100
AcDbLine
10
9.99735966544
20
3.90208152802
11
8.93669949366
21
2.84142135624
0
LINE
5
9F
100
AcDbEntity
8
vector
6
ByLayer
62
256
370
-1
100
AcDbLine
10
8.86598881554
20
2.84142135624
11
8.65385678119
21
3.05355339059
0
LINE
5
A0
100
AcDbEntity
8
vector
6
ByLayer
62
256
370
-1
100
AcDbLine
10
8.65385678119
20
3.12426406871
11
9.71451695297
21
4.18492424049
0
CIRCLE
5
A1
100
AcDbEntity
8
vector
6
ByLayer
62
256
370
-1
100
AcDbCircle
10
8.97205483272
20
3.15961940777
40
0.072
0
CIRCLE
5
A2
100
AcDbEntity
8
vector
6
ByLayer
62
256
370
-1
100
AcDbCircle
10
9.67916161391
20
3.86672618896
40
0.072
0
CIRCLE
5
A3
100
AcDbEntity
8
vector
6
ByLayer
62
256
370
-1
100
AcDbCircle
10
3.25940241636
20
4.75480970389
40
0.097
0
CIRCLE
5
A4
100
AcDbEntity
8
vector
6
ByLayer
62
256
370
-1
100
AcDbCircle
10
1.63440241636
20
3.12980970389
40
0.097
0
CIRCLE
5
A5
100
AcDbEntity
8
vector
6
ByLayer
62
256
370
-1
100
AcDbCircle
10
3.25940241636
20
1.50480970389
40
0.097
0
CIRCLE
5
A6
100
AcDbEntity
8
vector
6
ByLayer
62
256
370
-1
100
AcDbCircle
10
4.88440241636
20
3.12980970389
40
0.097
0
LINE
5
A7
100
AcDbEntity
8
vector
6
ByLayer
62
256
370
-1
100
AcDbLine
10
3.22940241636
20
5.42980970389
11
3.22940241636
21
5.62962969741
0
LINE
5
A8
100
AcDbEntity
8
vector
6
ByLayer
62
256
370
-1
100
AcDbLine
10
3.28940241636
20
5.42980970389
11
3.28940241636
21
5.62962969741
0
ARC
5
A9
100
AcDbEntity
8
vector
6
ByLayer
62
256
370
-1
100
AcDbCircle
10
3.25940241636
20
3.12980970389
40
2.5
100
AcDbArc
50
90.6875658564
51
89.3124341436
0
ARC
5
AA
100
AcDbEntity
8
vector
6
ByLayer
62
256
370
-1
100
AcDbCircle
10
3.25940241636
20
5.42980970389
40
0.03
100
AcDbArc
50
180
51
360
0
CIRCLE
5
AB
100
AcDbEntity
8
vector
6
ByLayer
62
256
370
-1
100
AcDbCircle
10
3.25940241636
20
3.12980970389
40
0.4
0
CIRCLE
5
AC
100
AcDbEntity
8
vector
6
ByLayer
62
256
370
-1
100
AcDbCircle
10
2.58765097423
20
3.80156114601
40
0.05325
0
CIRCLE
5
AD
100
AcDbEntity
8
vector
6
ByLayer
62
256
370
-1
100
AcDbCircle
10
2.23409758364
20
4.15511453661
40
0.05325
0
CIRCLE
5
AE
100
AcDbEntity
8
vector
6
ByLayer
62
256
370
-1
100
AcDbCircle
10
2.58765097423
20
2.45805826176
40
0.05325
0
CIRCLE
5
AF
100
AcDbEntity
8
vector
6
ByLayer
62
256
370
-1
100
AcDbCircle
10
2.23409758364
20
2.10450487117
40
0.05325
0
CIRCLE
5
B0
100
AcDbEntity
8
vector
6
ByLayer
62
256
370
-1
100
AcDbCircle
10
3.93115385849
20
2.45805826176
40
0.05325
0
CIRCLE
5
B1
100
AcDbEntity
8
vector
6
ByLayer
62
256
370
-1
100
AcDbCircle
10
4.28470724908
20
2.10450487117
40
0.05325
0
CIRCLE
5
B2
100
AcDbEntity
8
vector
6
ByLayer
62
256
370
-1
100
AcDbCircle
10
3.93115385849
20
3.80156114601
40
0.05325
0
CIRCLE
5
B3
100
AcDbEntity
8
vector
6
ByLayer
62
256
370
-1
100
AcDbCircle
10
4.28470724908
20
4.15511453661
40
0.05325
0
CIRCLE
5
B4
100
AcDbEntity
8
vector
6
ByLayer
62
256
370
-1
100
AcDbCircle
10
2.34675
20
3.35961940777
40
0.05325
0
CIRCLE
5
B5
100
AcDbEntity
8
vector
6
ByLayer
62
256
370
-1
100
AcDbCircle
10
1.63964321881
20
4.06672618896
40
0.05325
0
CIRCLE
5
B6
100
AcDbEntity
8
vector
6
ByLayer
62
256
370
-1
100
AcDbCircle
10
3.02959271247
20
4.04246212025
40
0.05325
0
CIRCLE
5
B7
100
AcDbEntity
8
vector
6
ByLayer
62
256
370
-1
100
AcDbCircle
10
2.32248593129
20
4.74956890143
40
0.05325
0
CIRCLE
5
B8
100
AcDbEntity
8
vector
6
ByLayer
62
256
370
-1
100
AcDbCircle
10
3.48921212025
20
4.04246212025
40
0.05325
0
CIRCLE
5
B9
100
AcDbEntity
8
vector
6
ByLayer
62
256
370
-1
100
AcDbCircle
10
4.19631890143
20
4.74956890143
40
0.05325
0
CIRCLE
5
BA
100
AcDbEntity
8
vector
6
ByLayer
62
256
370
-1
100
AcDbCircle
10
4.17205483272
20
3.35961940777
40
0.05325
0
CIRCLE
5
BB
100
AcDbEntity
8
vector
6
ByLayer
62
256
370
-1
100
AcDbCircle
10
4.87916161391
20
4.06672618896
40
0.05325
0
LWPOLYLINE
5
BC
100
AcDbEntity
8
lasercutter
6
ByLayer
62
256
370
-1
100
AcDbPolyline
90
4
70
1
43
0
10
0
20
0
10
35
20
0
10
35
20
23
10
0
20
23
0
LWPOLYLINE
5
BD
100
AcDbEntity
8
material
6
ByLayer
62
256
370
-1
100
AcDbPolyline
90
4
70
1
43
0
10
0
20
0
10
24
20
0
10
24
20
12
10
0
20
12
0
ENDSEC
0
SECTION
2
OBJECTS
0
DICTIONARY
5
C
330
0
100
AcDbDictionary
281
1
3
ACAD_GROUP
350
D
0
DICTIONARY
5
D
330
C
100
AcDbDictionary
281
1
0
ENDSEC
0
EOF
