999
dxfrw 0.6.3
  0
SECTION
  2
HEADER
  9
$ACADVER
  1
AC1021
  9
$DWGCODEPAGE
  3
ANSI_1252
  9
$INSBASE
 10
0
 20
0
 30
0
  9
$EXTMIN
 10
-0.09999999999999964
 20
0
 30
0
  9
$EXTMAX
 10
35
 20
23
 30
0
  9
$LIMMIN
 10
0
 20
0
  9
$LIMMAX
 10
420
 20
297
  9
$ORTHOMODE
 70
    0
  9
$REGENMODE
 70
    1
  9
$FILLMODE
 70
    1
  9
$QTEXTMODE
 70
    0
  9
$MIRRTEXT
 70
    0
  9
$LTSCALE
 40
1
  9
$ATTMODE
 70
    0
  9
$TEXTSIZE
 40
2.5
  9
$TRACEWID
 40
15.68
  9
$TEXTSTYLE
  7
STANDARD
  9
$CLAYER
  8
material
  9
$CELTYPE
  6
BYLAYER
  9
$CECOLOR
 62
  256
  9
$CELTSCALE
 40
1
  9
$DISPSILH
 70
    0
  9
$DIMSCALE
 40
1
  9
$DIMASZ
 40
0.1
  9
$DIMEXO
 40
0.025
  9
$DIMDLI
 40
3.75
  9
$DIMRND
 40
0
  9
$DIMDLE
 40
0
  9
$DIMEXE
 40
0.05
  9
$DIMTP
 40
0
  9
$DIMTM
 40
0
  9
$DIMTXT
 40
2.5
  9
$DIMCEN
 40
2.5
  9
$DIMTSZ
 40
0
  9
$DIMTOL
 70
    0
  9
$DIMLIM
 70
    0
  9
$DIMTIH
 70
    0
  9
$DIMTOH
 70
    0
  9
$DIMSE1
 70
    0
  9
$DIMSE2
 70
    0
  9
$DIMTAD
 70
    1
  9
$DIMZIN
 70
    8
  9
$DIMBLK
  1

  9
$DIMASO
 70
    1
  9
$DIMSHO
 70
    1
  9
$DIMPOST
  1

  9
$DIMAPOST
  1

  9
$DIMALT
 70
    0
  9
$DIMALTD
 70
    3
  9
$DIMALTF
 40
0.03937
  9
$DIMLFAC
 40
1
  9
$DIMTOFL
 70
    1
  9
$DIMTVP
 40
0
  9
$DIMTIX
 70
    0
  9
$DIMSOXD
 70
    0
  9
$DIMSAH
 70
    0
  9
$DIMBLK1
  1

  9
$DIMBLK2
  1

  9
$DIMSTYLE
  2
STANDARD
  9
$DIMCLRD
 70
    0
  9
$DIMCLRE
 70
    0
  9
$DIMCLRT
 70
    0
  9
$DIMTFAC
 40
1
  9
$DIMGAP
 40
0.625
  9
$DIMJUST
 70
    0
  9
$DIMSD1
 70
    0
  9
$DIMSD2
 70
    0
  9
$DIMTOLJ
 70
    0
  9
$DIMTZIN
 70
    8
  9
$DIMALTZ
 70
    0
  9
$DIMALTTZ
 70
    0
  9
$DIMUPT
 70
    0
  9
$DIMDEC
 70
    4
  9
$DIMTDEC
 70
    2
  9
$DIMALTU
 70
    2
  9
$DIMALTTD
 70
    3
  9
$DIMTXSTY
  7
STANDARD
  9
$DIMAUNIT
 70
    0
  9
$DIMADEC
 70
    2
  9
$DIMALTRND
 40
0
  9
$DIMAZIN
 70
    0
  9
$DIMDSEP
 70
    0
  9
$DIMATFIT
 70
    3
  9
$DIMFRAC
 70
    0
  9
$DIMLDRBLK
  1
STANDARD
  9
$DIMLUNIT
 70
    2
  9
$DIMLWD
 70
   -2
  9
$DIMLWE
 70
   -2
  9
$DIMTMOVE
 70
    0
  9
$DIMFXL
 40
0.04
  9
$DIMFXLON
 70
    0
  9
$DIMJOGANG
 40
0.7854
  9
$DIMTFILL
 70
    0
  9
$DIMTFILLCLR
 70
    0
  9
$DIMARCSYM
 70
    0
  9
$DIMLTYPE
  6

  9
$DIMLTEX1
  6

  9
$DIMLTEX2
  6

  9
$LUNITS
 70
    2
  9
$LUPREC
 70
    4
  9
$SKETCHINC
 40
1
  9
$FILLETRAD
 40
0
  9
$AUNITS
 70
    0
  9
$AUPREC
 70
    2
  9
$MENU
  1
.
  9
$ELEVATION
 40
0
  9
$PELEVATION
 40
0
  9
$THICKNESS
 40
0
  9
$LIMCHECK
 70
    0
  9
$CHAMFERA
 40
0
  9
$CHAMFERB
 40
0
  9
$CHAMFERC
 40
0
  9
$CHAMFERD
 40
0
  9
$SKPOLY
 70
    0
  9
$USRTIMER
 70
    1
  9
$ANGBASE
 50
0
  9
$ANGDIR
 70
    0
  9
$PDMODE
 70
   34
  9
$PDSIZE
 40
0
  9
$PLINEWID
 40
0
  9
$SPLFRAME
 70
    0
  9
$SPLINETYPE
 70
    2
  9
$SPLINESEGS
 70
    8
  9
$HANDSEED
  5
20000
  9
$SURFTAB1
 70
    6
  9
$SURFTAB2
 70
    6
  9
$SURFTYPE
 70
    6
  9
$SURFU
 70
    6
  9
$SURFV
 70
    6
  9
$UCSBASE
  2

  9
$UCSNAME
  2

  9
$UCSORG
 10
0
 20
0
 30
0
  9
$UCSXDIR
 10
1
 20
0
 30
0
  9
$UCSYDIR
 10
0
 20
1
 30
0
  9
$UCSORTHOREF
  2

  9
$UCSORTHOVIEW
 70
    0
  9
$UCSORGTOP
 10
0
 20
0
 30
0
  9
$UCSORGBOTTOM
 10
0
 20
0
 30
0
  9
$UCSORGLEFT
 10
0
 20
0
 30
0
  9
$UCSORGRIGHT
 10
0
 20
0
 30
0
  9
$UCSORGFRONT
 10
0
 20
0
 30
0
  9
$UCSORGBACK
 10
0
 20
0
 30
0
  9
$PUCSBASE
  2

  9
$PUCSNAME
  2

  9
$PUCSORG
 10
0
 20
0
 30
0
  9
$PUCSXDIR
 10
1
 20
0
 30
0
  9
$PUCSYDIR
 10
0
 20
1
 30
0
  9
$PUCSORTHOREF
  2

  9
$PUCSORTHOVIEW
 70
    0
  9
$PUCSORGTOP
 10
0
 20
0
 30
0
  9
$PUCSORGBOTTOM
 10
0
 20
0
 30
0
  9
$PUCSORGLEFT
 10
0
 20
0
 30
0
  9
$PUCSORGRIGHT
 10
0
 20
0
 30
0
  9
$PUCSORGFRONT
 10
0
 20
0
 30
0
  9
$PUCSORGBACK
 10
0
 20
0
 30
0
  9
$USERI1
 70
    0
  9
$USERI2
 70
    0
  9
$USERI3
 70
    0
  9
$USERI4
 70
    0
  9
$USERI5
 70
    0
  9
$USERR1
 40
0
  9
$USERR2
 40
0
  9
$USERR3
 40
0
  9
$USERR4
 40
0
  9
$USERR5
 40
0
  9
$WORLDVIEW
 70
    1
  9
$SHADEDGE
 70
    3
  9
$SHADEDIF
 70
   70
  9
$TILEMODE
 70
    1
  9
$MAXACTVP
 70
   64
  9
$PINSBASE
 10
0
 20
0
 30
0
  9
$PLIMCHECK
 70
    0
  9
$PEXTMIN
 10
0
 20
0
 30
0
  9
$PEXTMAX
 10
0
 20
0
 30
0
  9
$GRIDMODE
 70
    1
  9
$SNAPSTYLE
 70
    0
  9
$GRIDUNIT
 10
0
 20
0
  9
$PLIMMIN
 10
0
 20
0
  9
$PLIMMAX
 10
1.9863308e-05
 20
2.80924e-05
  9
$UNITMODE
 70
    0
  9
$VISRETAIN
 70
    1
  9
$PLINEGEN
 70
    0
  9
$PSLTSCALE
 70
    1
  9
$TREEDEPTH
 70
 3020
  9
$CMLSTYLE
  2
Standard
  9
$CMLJUST
 70
    0
  9
$CMLSCALE
 40
20
  9
$PROXYGRAPHICS
 70
    1
  9
$MEASUREMENT
 70
    1
  9
$CELWEIGHT
370
   -1
  9
$ENDCAPS
280
    0
  9
$JOINSTYLE
280
    0
  9
$LWDISPLAY
290
    0
  9
$INSUNITS
 70
    1
  9
$HYPERLINKBASE
  1

  9
$STYLESHEET
  1

  9
$XEDIT
290
    1
  9
$CEPSNTYPE
380
    0
  9
$PSTYLEMODE
290
    1
  9
$EXTNAMES
290
    1
  9
$PSVPSCALE
 40
1
  9
$OLESTARTUP
290
    0
  9
$SORTENTS
280
  127
  9
$INDEXCTL
280
    0
  9
$HIDETEXT
280
    1
  9
$XCLIPFRAME
290
    0
  9
$HALOGAP
280
    0
  9
$OBSCOLOR
 70
  257
  9
$OBSLTYPE
280
    0
  9
$INTERSECTIONDISPLAY
280
    0
  9
$INTERSECTIONCOLOR
 70
  257
  9
$DIMASSOC
280
    1
  9
$PROJECTNAME
  1

  9
$CAMERADISPLAY
290
    0
  9
$LENSLENGTH
 40
50
  9
$CAMERAHEIGHT
 40
0
  9
$STEPSPERSEC
 40
2
  9
$STEPSIZE
 40
50
  9
$3DDWFPREC
 40
2
  9
$PSOLWIDTH
 40
5
  9
$PSOLHEIGHT
 40
80
  9
$LOFTANG1
 40
1.570796326794897
  9
$LOFTANG2
 40
1.570796326794897
  9
$LOFTMAG1
 40
0
  9
$LOFTMAG2
 40
0
  9
$LOFTPARAM
 70
    7
  9
$LOFTNORMALS
280
    1
  9
$LATITUDE
 40
1
  9
$LONGITUDE
 40
1
  9
$NORTHDIRECTION
 40
0
  9
$TIMEZONE
 70
-8000
  9
$LIGHTGLYPHDISPLAY
280
    1
  9
$TILEMODELIGHTSYNCH
280
    1
  9
$SOLIDHIST
280
    1
  9
$SHOWHIST
280
    1
  9
$DWFFRAME
280
    2
  9
$DGNFRAME
280
    0
  9
$REALWORLDSCALE
290
    1
  9
$INTERFERECOLOR
 62
    1
  9
$CSHADOW
280
    0
  9
$SHADOWPLANELOCATION
 40
0
  0
ENDSEC
  0
SECTION
  2
CLASSES
  0
ENDSEC
  0
SECTION
  2
TABLES
  0
TABLE
  2
VPORT
  5
8
330
0
100
AcDbSymbolTable
 70
    1
  0
VPORT
  5
31
330
2
100
AcDbSymbolTableRecord
100
AcDbViewportTableRecord
  2
*ACTIVE
 70
    0
 10
0
 20
0
 11
1
 21
1
 12
13.31908775360515
 22
8.679156716579403
 13
0
 23
0
 14
10
 24
10
 15
10
 25
10
 16
0
 26
0
 36
1
 17
0
 27
0
 37
0
 40
27.71530235509127
 41
1.919282511210762
 42
50
 43
0
 44
0
 50
0
 51
0
 71
    0
 72
  100
 73
    1
 74
    3
 75
    0
 76
    1
 77
    0
 78
    0
281
    0
 65
    1
110
0
120
0
130
0
111
1
121
0
131
0
112
0
122
1
132
0
 79
    0
146
0
348
10020
 60
    7
 61
    5
292
1
282
    1
141
0
142
0
 63
  250
421
3358443
  0
ENDTAB
  0
TABLE
  2
LTYPE
  5
5
330
0
100
AcDbSymbolTable
 70
    4
  0
LTYPE
  5
14
330
5
100
AcDbSymbolTableRecord
100
AcDbLinetypeTableRecord
  2
ByBlock
 70
    0
  3

 72
   65
 73
    0
 40
0
  0
LTYPE
  5
15
330
5
100
AcDbSymbolTableRecord
100
AcDbLinetypeTableRecord
  2
ByLayer
 70
    0
  3

 72
   65
 73
    0
 40
0
  0
LTYPE
  5
16
330
5
100
AcDbSymbolTableRecord
100
AcDbLinetypeTableRecord
  2
Continuous
 70
    0
  3
Solid line
 72
   65
 73
    0
 40
0
  0
LTYPE
  5
32
330
5
100
AcDbSymbolTableRecord
100
AcDbLinetypeTableRecord
  2
DOT
 70
    0
  3
Dot . . . . . . . . . . . . . . . . . . . . . .
 72
   65
 73
    2
 40
6.35
 49
0
 74
    0
 49
-6.35
 74
    0
  0
LTYPE
  5
33
330
5
100
AcDbSymbolTableRecord
100
AcDbLinetypeTableRecord
  2
DOTTINY
 70
    0
  3
Dot (.15x) .....................................
 72
   65
 73
    2
 40
0.9525
 49
0
 74
    0
 49
-0.9525
 74
    0
  0
LTYPE
  5
34
330
5
100
AcDbSymbolTableRecord
100
AcDbLinetypeTableRecord
  2
DOT2
 70
    0
  3
Dot (.5x) .....................................
 72
   65
 73
    2
 40
3.175
 49
0
 74
    0
 49
-3.175
 74
    0
  0
LTYPE
  5
35
330
5
100
AcDbSymbolTableRecord
100
AcDbLinetypeTableRecord
  2
DOTX2
 70
    0
  3
Dot (2x) .  .  .  .  .  .  .  .  .  .  .  .  .
 72
   65
 73
    2
 40
12.7
 49
0
 74
    0
 49
-12.7
 74
    0
  0
LTYPE
  5
36
330
5
100
AcDbSymbolTableRecord
100
AcDbLinetypeTableRecord
  2
DASHED
 70
    0
  3
Dashed _ _ _ _ _ _ _ _ _ _ _ _ _ _ _ _ _
 72
   65
 73
    2
 40
19.05
 49
12.7
 74
    0
 49
-6.35
 74
    0
  0
LTYPE
  5
37
330
5
100
AcDbSymbolTableRecord
100
AcDbLinetypeTableRecord
  2
DASHEDTINY
 70
    0
  3
Dashed (.15x) _ _ _ _ _ _ _ _ _ _ _ _ _ _ _ _ _
 72
   65
 73
    2
 40
2.8575
 49
1.905
 74
    0
 49
-0.9525
 74
    0
  0
LTYPE
  5
38
330
5
100
AcDbSymbolTableRecord
100
AcDbLinetypeTableRecord
  2
DASHED2
 70
    0
  3
Dashed (.5x) _ _ _ _ _ _ _ _ _ _ _ _ _ _ _ _ _
 72
   65
 73
    2
 40
9.524999999999999
 49
6.35
 74
    0
 49
-3.175
 74
    0
  0
LTYPE
  5
39
330
5
100
AcDbSymbolTableRecord
100
AcDbLinetypeTableRecord
  2
DASHEDX2
 70
    0
  3
Dashed (2x) ____  ____  ____  ____  ____  ___
 72
   65
 73
    2
 40
38.09999999999999
 49
25.4
 74
    0
 49
-12.7
 74
    0
  0
LTYPE
  5
3A
330
5
100
AcDbSymbolTableRecord
100
AcDbLinetypeTableRecord
  2
DASHDOT
 70
    0
  3
Dash dot __ . __ . __ . __ . __ . __ . __ . __
 72
   65
 73
    4
 40
25.4
 49
12.7
 74
    0
 49
-6.35
 74
    0
 49
0
 74
    0
 49
-6.35
 74
    0
  0
LTYPE
  5
3B
330
5
100
AcDbSymbolTableRecord
100
AcDbLinetypeTableRecord
  2
DASHDOTTINY
 70
    0
  3
Dash dot (.15x) _._._._._._._._._._._._._._._.
 72
   65
 73
    4
 40
3.81
 49
1.905
 74
    0
 49
-0.9525
 74
    0
 49
0
 74
    0
 49
-0.9525
 74
    0
  0
LTYPE
  5
3C
330
5
100
AcDbSymbolTableRecord
100
AcDbLinetypeTableRecord
  2
DASHDOT2
 70
    0
  3
Dash dot (.5x) _._._._._._._._._._._._._._._.
 72
   65
 73
    4
 40
12.7
 49
6.35
 74
    0
 49
-3.175
 74
    0
 49
0
 74
    0
 49
-3.175
 74
    0
  0
LTYPE
  5
3D
330
5
100
AcDbSymbolTableRecord
100
AcDbLinetypeTableRecord
  2
DASHDOTX2
 70
    0
  3
Dash dot (2x) ____  .  ____  .  ____  .  ___
 72
   65
 73
    4
 40
50.8
 49
25.4
 74
    0
 49
-12.7
 74
    0
 49
0
 74
    0
 49
-12.7
 74
    0
  0
LTYPE
  5
3E
330
5
100
AcDbSymbolTableRecord
100
AcDbLinetypeTableRecord
  2
DIVIDE
 70
    0
  3
Divide ____ . . ____ . . ____ . . ____ . . ____
 72
   65
 73
    6
 40
31.75
 49
12.7
 74
    0
 49
-6.35
 74
    0
 49
0
 74
    0
 49
-6.35
 74
    0
 49
0
 74
    0
 49
-6.35
 74
    0
  0
LTYPE
  5
3F
330
5
100
AcDbSymbolTableRecord
100
AcDbLinetypeTableRecord
  2
DIVIDETINY
 70
    0
  3
Divide (.15x) __..__..__..__..__..__..__..__.._
 72
   65
 73
    6
 40
4.7625
 49
1.905
 74
    0
 49
-0.9525
 74
    0
 49
0
 74
    0
 49
-0.9525
 74
    0
 49
0
 74
    0
 49
-0.9525
 74
    0
  0
LTYPE
  5
40
330
5
100
AcDbSymbolTableRecord
100
AcDbLinetypeTableRecord
  2
DIVIDE2
 70
    0
  3
Divide (.5x) __..__..__..__..__..__..__..__.._
 72
   65
 73
    6
 40
15.875
 49
6.35
 74
    0
 49
-3.175
 74
    0
 49
0
 74
    0
 49
-3.175
 74
    0
 49
0
 74
    0
 49
-3.175
 74
    0
  0
LTYPE
  5
41
330
5
100
AcDbSymbolTableRecord
100
AcDbLinetypeTableRecord
  2
DIVIDEX2
 70
    0
  3
Divide (2x) ________  .  .  ________  .  .  _
 72
   65
 73
    6
 40
63.5
 49
25.4
 74
    0
 49
-12.7
 74
    0
 49
0
 74
    0
 49
-12.7
 74
    0
 49
0
 74
    0
 49
-12.7
 74
    0
  0
LTYPE
  5
42
330
5
100
AcDbSymbolTableRecord
100
AcDbLinetypeTableRecord
  2
BORDER
 70
    0
  3
Border __ __ . __ __ . __ __ . __ __ . __ __ .
 72
   65
 73
    6
 40
44.45
 49
12.7
 74
    0
 49
-6.35
 74
    0
 49
12.7
 74
    0
 49
-6.35
 74
    0
 49
0
 74
    0
 49
-6.35
 74
    0
  0
LTYPE
  5
43
330
5
100
AcDbSymbolTableRecord
100
AcDbLinetypeTableRecord
  2
BORDERTINY
 70
    0
  3
Border (.15x) __.__.__.__.__.__.__.__.__.__.__.
 72
   65
 73
    6
 40
6.6675
 49
1.905
 74
    0
 49
-0.9525
 74
    0
 49
1.905
 74
    0
 49
-0.9525
 74
    0
 49
0
 74
    0
 49
-0.9525
 74
    0
  0
LTYPE
  5
44
330
5
100
AcDbSymbolTableRecord
100
AcDbLinetypeTableRecord
  2
BORDER2
 70
    0
  3
Border (.5x) __.__.__.__.__.__.__.__.__.__.__.
 72
   65
 73
    6
 40
22.225
 49
6.35
 74
    0
 49
-3.175
 74
    0
 49
6.35
 74
    0
 49
-3.175
 74
    0
 49
0
 74
    0
 49
-3.175
 74
    0
  0
LTYPE
  5
45
330
5
100
AcDbSymbolTableRecord
100
AcDbLinetypeTableRecord
  2
BORDERX2
 70
    0
  3
Border (2x) ____  ____  .  ____  ____  .  ___
 72
   65
 73
    6
 40
88.89999999999999
 49
25.4
 74
    0
 49
-12.7
 74
    0
 49
25.4
 74
    0
 49
-12.7
 74
    0
 49
0
 74
    0
 49
-12.7
 74
    0
  0
LTYPE
  5
46
330
5
100
AcDbSymbolTableRecord
100
AcDbLinetypeTableRecord
  2
CENTER
 70
    0
  3
Center ____ _ ____ _ ____ _ ____ _ ____ _ ____
 72
   65
 73
    4
 40
50.8
 49
31.75
 74
    0
 49
-6.35
 74
    0
 49
6.35
 74
    0
 49
-6.35
 74
    0
  0
LTYPE
  5
47
330
5
100
AcDbSymbolTableRecord
100
AcDbLinetypeTableRecord
  2
CENTERTINY
 70
    0
  3
Center (.15x) ___ _ ___ _ ___ _ ___ _ ___ _ ___
 72
   65
 73
    4
 40
7.619999999999999
 49
4.7625
 74
    0
 49
-0.9525
 74
    0
 49
0.9525
 74
    0
 49
-0.9525
 74
    0
  0
LTYPE
  5
48
330
5
100
AcDbSymbolTableRecord
100
AcDbLinetypeTableRecord
  2
CENTER2
 70
    0
  3
Center (.5x) ___ _ ___ _ ___ _ ___ _ ___ _ ___
 72
   65
 73
    4
 40
28.575
 49
19.05
 74
    0
 49
-3.175
 74
    0
 49
3.175
 74
    0
 49
-3.175
 74
    0
  0
LTYPE
  5
49
330
5
100
AcDbSymbolTableRecord
100
AcDbLinetypeTableRecord
  2
CENTERX2
 70
    0
  3
Center (2x) ________  __  ________  __  _____
 72
   65
 73
    4
 40
101.6
 49
63.5
 74
    0
 49
-12.7
 74
    0
 49
12.7
 74
    0
 49
-12.7
 74
    0
  0
ENDTAB
  0
TABLE
  2
LAYER
  5
2
330
0
100
AcDbSymbolTable
 70
    1
  0
LAYER
  5
10
330
2
100
AcDbSymbolTableRecord
100
AcDbLayerTableRecord
  2
0
 70
    0
 62
    7
  6
CONTINUOUS
370
    0
390
F
  0
LAYER
  5
4A
330
2
100
AcDbSymbolTableRecord
100
AcDbLayerTableRecord
  2
engrave
 70
    0
 62
    6
  6
CONTINUOUS
370
    0
390
F
  0
LAYER
  5
4B
330
2
100
AcDbSymbolTableRecord
100
AcDbLayerTableRecord
  2
lasercutter
 70
    0
 62
    5
  6
CONTINUOUS
370
    0
390
F
  0
LAYER
  5
4C
330
2
100
AcDbSymbolTableRecord
100
AcDbLayerTableRecord
  2
material
 70
    0
 62
    4
  6
CONTINUOUS
370
    0
390
F
  0
LAYER
  5
4D
330
2
100
AcDbSymbolTableRecord
100
AcDbLayerTableRecord
  2
vector
 70
    0
 62
    3
  6
CONTINUOUS
370
    0
390
F
  0
ENDTAB
  0
TABLE
  2
STYLE
  5
3
330
0
100
AcDbSymbolTable
 70
    3
  0
STYLE
  5
4E
330
2
100
AcDbSymbolTableRecord
100
AcDbTextStyleTableRecord
  2
Standard
 70
    0
 40
0
 41
1
 50
0
 71
    0
 42
1
  3
txt
  4

  0
ENDTAB
  0
TABLE
  2
VIEW
  5
6
330
0
100
AcDbSymbolTable
 70
    0
  0
ENDTAB
  0
TABLE
  2
UCS
  5
7
330
0
100
AcDbSymbolTable
 70
    0
  0
ENDTAB
  0
TABLE
  2
APPID
  5
9
330
0
100
AcDbSymbolTable
 70
    1
  0
APPID
  5
12
330
9
100
AcDbSymbolTableRecord
100
AcDbRegAppTableRecord
  2
ACAD
 70
    0
  0
APPID
  5
4F
330
9
100
AcDbSymbolTableRecord
100
AcDbRegAppTableRecord
  2
LibreCad
 70
    0
  0
ENDTAB
  0
TABLE
  2
DIMSTYLE
  5
A
330
0
100
AcDbSymbolTable
 70
    1
100
AcDbDimStyleTable
 71
    1
  0
DIMSTYLE
105
50
330
A
100
AcDbSymbolTableRecord
100
AcDbDimStyleTableRecord
  2
Standard
 70
    0
 40
1
 41
0.1
 42
0.025
 43
0.38
 44
0.05
 45
0
 46
0
 47
0
 48
0
 49
0.04
140
2.5
141
0.09
142
0
143
25.4
144
1
145
0
146
1
147
0.625
148
0
 71
    0
 72
    0
 73
    0
 74
    1
 75
    0
 76
    0
 77
    0
 78
    8
 79
    0
170
    0
171
    2
172
    0
173
    0
174
    0
175
    0
176
    0
177
    0
178
    0
179
    2
271
    4
272
    4
273
    2
274
    2
275
    0
276
    0
277
    2
278
    0
279
    0
280
    0
281
    0
282
    0
283
    1
284
    0
285
    0
286
    0
288
    0
289
    3
340
STANDARD
341

371
   -2
372
   -2
  0
ENDTAB
  0
TABLE
  2
BLOCK_RECORD
  5
1
330
0
100
AcDbSymbolTable
 70
    2
  0
BLOCK_RECORD
  5
1F
330
1
100
AcDbSymbolTableRecord
100
AcDbBlockTableRecord
  2
*Model_Space
 70
    0
280
    1
281
    0
  0
BLOCK_RECORD
  5
1E
330
1
100
AcDbSymbolTableRecord
100
AcDbBlockTableRecord
  2
*Paper_Space
 70
    0
280
    1
281
    0
  0
ENDTAB
  0
ENDSEC
  0
SECTION
  2
BLOCKS
  0
BLOCK
  5
20
330
1F
100
AcDbEntity
  8
0
100
AcDbBlockBegin
  2
*Model_Space
 70
    0
 10
0
 20
0
 30
0
  3
*Model_Space
  1

  0
ENDBLK
  5
21
330
1F
100
AcDbEntity
  8
0
100
AcDbBlockEnd
  0
BLOCK
  5
1C
330
1B
100
AcDbEntity
  8
0
100
AcDbBlockBegin
  2
*Paper_Space
 70
    0
 10
0
 20
0
 30
0
  3
*Paper_Space
  1

  0
ENDBLK
  5
1D
330
1F
100
AcDbEntity
  8
0
100
AcDbBlockEnd
  0
ENDSEC
  0
SECTION
  2
ENTITIES
  0
LINE
  5
51
100
AcDbEntity
  8
engrave
  6
ByLayer
 62
  256
370
   -1
100
AcDbLine
 10
7.671014068711929
 20
3.018198051533946
 11
7.423526695296637
 21
3.265685424949238
  0
LINE
  5
52
100
AcDbEntity
  8
engrave
  6
ByLayer
 62
  256
370
   -1
100
AcDbLine
 10
8.047790764008564
 20
3.018198051533946
 11
8.295278137423857
 21
3.265685424949238
  0
LINE
  5
53
100
AcDbEntity
  8
vector
  6
ByLayer
 62
  256
370
   -1
100
AcDbLine
 10
7.576559703885628
 20
2.854809703885627
 11
7.459402416360247
 21
2.854809703885627
  0
LINE
  5
54
100
AcDbEntity
  8
vector
  6
ByLayer
 62
  256
370
   -1
100
AcDbLine
 10
8.142245128834865
 20
2.854809703885627
 11
8.259402416360247
 21
2.854809703885627
  0
ARC
  5
55
100
AcDbEntity
  8
vector
  6
ByLayer
 62
  256
370
   -1
100
AcDbCircle
 10
7.859402416360247
 20
2.854809703885627
 40
0
100
AcDbArc
 50
45
 51
45
  0
ARC
  5
56
100
AcDbEntity
  8
vector
  6
ByLayer
 62
  256
370
   -1
100
AcDbCircle
 10
7.859402416360247
 20
1.229809703885627
 40
0.4
100
AcDbArc
 50
0
 51
180
  0
ARC
  5
57
100
AcDbEntity
  8
vector
  6
ByLayer
 62
  256
370
   -1
100
AcDbCircle
 10
7.359402416360247
 20
0.9674929738609945
 40
0.1
100
AcDbArc
 50
255.1617140425662
 51
0
  0
ARC
  5
58
100
AcDbEntity
  8
vector
  6
ByLayer
 62
  256
370
   -1
100
AcDbCircle
 10
8.359402416360247
 20
0.9674929738609945
 40
0.1
100
AcDbArc
 50
179.9999999999999
 51
284.8382859574328
  0
LINE
  5
59
100
AcDbEntity
  8
vector
  6
ByLayer
 62
  256
370
   -1
100
AcDbLine
 10
7.459402416360247
 20
1.229809703885627
 11
7.459402416360247
 21
0.9674929738609945
  0
LINE
  5
5A
100
AcDbEntity
  8
vector
  6
ByLayer
 62
  256
370
   -1
100
AcDbLine
 10
8.259402416360247
 20
1.229809703885627
 11
8.259402416360246
 21
0.9674929738609945
  0
ARC
  5
5B
100
AcDbEntity
  8
vector
  6
ByLayer
 62
  256
370
   -1
100
AcDbCircle
 10
7.824945220673124
 20
2.5922820514744
 40
0.01
100
AcDbArc
 50
329.4775121859303
 51
45.00000000000005
  0
ARC
  5
5C
100
AcDbEntity
  8
vector
  6
ByLayer
 62
  256
370
   -1
100
AcDbCircle
 10
7.893859612047371
 20
2.592282051474402
 40
0.01
100
AcDbArc
 50
135
 51
210.5224878140701
  0
LINE
  5
5D
100
AcDbEntity
  8
vector
  6
ByLayer
 62
  256
370
   -1
100
AcDbLine
 10
7.576559703885628
 20
2.854809703885627
 11
7.832016288484989
 21
2.599353119286266
  0
ARC
  5
5E
100
AcDbEntity
  8
vector
  6
ByLayer
 62
  256
370
   -1
100
AcDbCircle
 10
7.859402416360247
 20
2.571966991411009
 40
0.03
100
AcDbArc
 50
149.4775062162945
 51
30.52248781407027
  0
LINE
  5
5F
100
AcDbEntity
  8
vector
  6
ByLayer
 62
  256
370
   -1
100
AcDbLine
 10
7.886788544235506
 20
2.599353119286266
 11
8.142245128834865
 21
2.854809703885627
  0
ARC
  5
60
100
AcDbEntity
  8
vector
  6
ByLayer
 62
  256
370
   -1
100
AcDbCircle
 10
6.355607186538562
 20
1.609593117826633
 40
0.1
100
AcDbArc
 50
134.9999999999999
 51
219.6264323267038
  0
ARC
  5
61
100
AcDbEntity
  8
vector
  6
ByLayer
 62
  256
370
   -1
100
AcDbCircle
 10
9.363197646181932
 20
1.609593117826633
 40
0.1
100
AcDbArc
 50
320.3735676732959
 51
45.0000000000001
  0
LINE
  5
62
100
AcDbEntity
  8
vector
  6
ByLayer
 62
  256
370
   -1
100
AcDbLine
 10
7.459402416360247
 20
2.854809703885627
 11
6.284896508419907
 21
1.680303795945288
  0
ARC
  5
63
100
AcDbEntity
  8
vector
  6
ByLayer
 62
  256
370
   -1
100
AcDbCircle
 10
7.859402416360247
 20
2.854809703885627
 40
2.052425271151466
100
AcDbArc
 50
219.6264315145285
 51
255.1617140425666
  0
ARC
  5
64
100
AcDbEntity
  8
vector
  6
ByLayer
 62
  256
370
   -1
100
AcDbCircle
 10
7.859402416360247
 20
2.854809703885627
 40
2.052425271151466
100
AcDbArc
 50
284.8382859574333
 51
320.3735676732961
  0
LINE
  5
65
100
AcDbEntity
  8
vector
  6
ByLayer
 62
  256
370
   -1
100
AcDbLine
 10
8.259402416360247
 20
2.854809703885627
 11
9.433908334770964
 21
1.680303785474909
  0
CIRCLE
  5
66
100
AcDbEntity
  8
vector
  6
ByLayer
 62
  256
370
   -1
100
AcDbCircle
 10
7.187650974233026
 20
2.183058261758408
 40
0.07199999999999999
  0
CIRCLE
  5
67
100
AcDbEntity
  8
vector
  6
ByLayer
 62
  256
370
   -1
100
AcDbCircle
 10
6.834097583639753
 20
1.829504871165133
 40
0.07199999999999999
  0
CIRCLE
  5
68
100
AcDbEntity
  8
vector
  6
ByLayer
 62
  256
370
   -1
100
AcDbCircle
 10
8.531153858487468
 20
2.183058261758408
 40
0.07199999999999999
  0
CIRCLE
  5
69
100
AcDbEntity
  8
vector
  6
ByLayer
 62
  256
370
   -1
100
AcDbCircle
 10
8.884707249080741
 20
1.829504871165133
 40
0.07199999999999999
  0
ARC
  5
6A
100
AcDbEntity
  8
vector
  6
ByLayer
 62
  256
370
   -1
100
AcDbCircle
 10
6.639643218813452
 20
4.620279579551076
 40
0.05
100
AcDbArc
 50
134.9999999999998
 51
224.9999999999999
  0
ARC
  5
6B
100
AcDbEntity
  8
vector
  6
ByLayer
 62
  256
370
   -1
100
AcDbCircle
 10
6.851775253169417
 20
4.83241161390704
 40
0.05
100
AcDbArc
 50
45
 51
135
  0
LINE
  5
6C
100
AcDbEntity
  8
vector
  6
ByLayer
 62
  256
370
   -1
100
AcDbLine
 10
6.604287879754125
 20
4.655634918610405
 11
6.81641991411009
 21
4.867766952966369
  0
LINE
  5
6D
100
AcDbEntity
  8
vector
  6
ByLayer
 62
  256
370
   -1
100
AcDbLine
 10
7.664948051533947
 20
3.524264068711928
 11
6.604287879754125
 21
4.584924240491749
  0
CIRCLE
  5
6E
100
AcDbEntity
  8
vector
  6
ByLayer
 62
  256
370
   -1
100
AcDbCircle
 10
7.629592712474619
 20
3.842462120245874
 40
0.07199999999999999
  0
CIRCLE
  5
6F
100
AcDbEntity
  8
vector
  6
ByLayer
 62
  256
370
   -1
100
AcDbCircle
 10
6.922485931288072
 20
4.549568901432422
 40
0.07199999999999999
  0
ARC
  5
70
100
AcDbEntity
  8
vector
  6
ByLayer
 62
  256
370
   -1
100
AcDbCircle
 10
8.867029579551076
 20
4.83241161390704
 40
0.05
100
AcDbArc
 50
44.99999999999984
 51
134.9999999999999
  0
ARC
  5
71
100
AcDbEntity
  8
vector
  6
ByLayer
 62
  256
370
   -1
100
AcDbCircle
 10
9.079161613907042
 20
4.620279579551076
 40
0.05
100
AcDbArc
 50
315
 51
45
  0
LINE
  5
72
100
AcDbEntity
  8
vector
  6
ByLayer
 62
  256
370
   -1
100
AcDbLine
 10
8.902384918610405
 20
4.867766952966369
 11
9.114516952966369
 21
4.655634918610404
  0
LINE
  5
73
100
AcDbEntity
  8
vector
  6
ByLayer
 62
  256
370
   -1
100
AcDbLine
 10
9.114516952966369
 20
4.584924240491749
 11
8.053856781186546
 21
3.524264068711928
  0
CIRCLE
  5
74
100
AcDbEntity
  8
vector
  6
ByLayer
 62
  256
370
   -1
100
AcDbCircle
 10
8.089212120245875
 20
3.842462120245875
 40
0.07199999999999999
  0
CIRCLE
  5
75
100
AcDbEntity
  8
vector
  6
ByLayer
 62
  256
370
   -1
100
AcDbCircle
 10
8.796318901432421
 20
4.549568901432422
 40
0.07199999999999999
  0
LINE
  5
76
100
AcDbEntity
  8
vector
  6
ByLayer
 62
  256
370
   -1
100
AcDbLine
 10
7.664948051533947
 20
3.524264068711928
 11
8.053856781186546
 21
3.524264068711928
  0
ARC
  5
77
100
AcDbEntity
  8
vector
  6
ByLayer
 62
  256
370
   -1
100
AcDbCircle
 10
7.579592712662113
 20
4.246015510651653
 40
0.05
100
AcDbArc
 50
225
 51
269.9999994812991
  0
ARC
  5
78
100
AcDbEntity
  8
vector
  6
ByLayer
 62
  256
370
   -1
100
AcDbCircle
 10
8.139212114992125
 20
4.246015505585397
 40
0.05
100
AcDbArc
 50
269.9999994812991
 51
315
  0
LINE
  5
79
100
AcDbEntity
  8
vector
  6
ByLayer
 62
  256
370
   -1
100
AcDbLine
 10
6.887130592228744
 20
4.867766952966368
 11
7.544237373602786
 21
4.210660171592327
  0
LINE
  5
7A
100
AcDbEntity
  8
vector
  6
ByLayer
 62
  256
370
   -1
100
AcDbLine
 10
7.579592712209462
 20
4.196015510651653
 11
8.139212114539472
 21
4.196015505585398
  0
LINE
  5
7B
100
AcDbEntity
  8
vector
  6
ByLayer
 62
  256
370
   -1
100
AcDbLine
 10
8.174567454051452
 20
4.210660166526071
 11
8.831674240491751
 21
4.867766952966369
  0
LINE
  5
7C
100
AcDbEntity
  8
vector
  6
ByLayer
 62
  256
370
   -1
100
AcDbLine
 10
7.671014068711929
 20
3.018198051533946
 11
7.759402416360247
 21
3.106586399182265
  0
LINE
  5
7D
100
AcDbEntity
  8
vector
  6
ByLayer
 62
  256
370
   -1
100
AcDbLine
 10
7.671014068711929
 20
3.018198051533946
 11
7.582625721063611
 21
2.929809703885628
  0
LINE
  5
7E
100
AcDbEntity
  8
vector
  6
ByLayer
 62
  256
370
   -1
100
AcDbLine
 10
7.582625721063611
 20
2.929809703885628
 11
7.359402416360247
 21
2.929809703885628
  0
LINE
  5
7F
100
AcDbEntity
  8
vector
  6
ByLayer
 62
  256
370
   -1
100
AcDbLine
 10
6.572877237529221
 20
4.218158259207518
 11
7.350694696834423
 21
3.440340799902315
  0
LINE
  5
80
100
AcDbEntity
  8
vector
  6
ByLayer
 62
  256
370
   -1
100
AcDbLine
 10
6.471053861038358
 20
4.116334882716655
 11
7.24887132034356
 21
3.338517423411452
  0
ARC
  5
81
100
AcDbEntity
  8
vector
  6
ByLayer
 62
  256
370
   -1
100
AcDbCircle
 10
7.299783008588991
 20
3.389429111656884
 40
0.07199999999999999
100
AcDbArc
 50
225
 51
45
  0
ARC
  5
82
100
AcDbEntity
  8
vector
  6
ByLayer
 62
  256
370
   -1
100
AcDbCircle
 10
6.52196554928379
 20
4.167246570962085
 40
0.07199999999999999
100
AcDbArc
 50
45
 51
225
  0
ARC
  5
83
100
AcDbEntity
  8
vector
  6
ByLayer
 62
  256
370
   -1
100
AcDbCircle
 10
6.2633869055211
 20
4.167246570962085
 40
0.1
100
AcDbArc
 50
135.0000000000001
 51
224.9999999999999
  0
ARC
  5
84
100
AcDbEntity
  8
vector
  6
ByLayer
 62
  256
370
   -1
100
AcDbCircle
 10
6.52196554928379
 20
4.425825214724775
 40
0.1
100
AcDbArc
 50
45
 51
135
  0
LINE
  5
85
100
AcDbEntity
  8
vector
  6
ByLayer
 62
  256
370
   -1
100
AcDbLine
 10
7.359402416360247
 20
2.929809703885628
 11
6.192676227402444
 21
4.096535892843431
  0
LINE
  5
86
100
AcDbEntity
  8
vector
  6
ByLayer
 62
  256
370
   -1
100
AcDbLine
 10
6.192676227402444
 20
4.237957249080741
 11
6.451254882047625
 21
4.49653590372592
  0
LINE
  5
87
100
AcDbEntity
  8
vector
  6
ByLayer
 62
  256
370
   -1
100
AcDbLine
 10
7.759402416360247
 20
3.329809703885628
 11
6.592676227402444
 21
4.496535892843431
  0
LINE
  5
88
100
AcDbEntity
  8
vector
  6
ByLayer
 62
  256
370
   -1
100
AcDbLine
 10
8.047790764008564
 20
3.018198051533946
 11
8.136179111656883
 21
2.929809703885628
  0
LINE
  5
89
100
AcDbEntity
  8
vector
  6
ByLayer
 62
  256
370
   -1
100
AcDbLine
 10
8.136179111656883
 20
2.929809703885628
 11
8.359402416360247
 21
2.929809703885628
  0
LINE
  5
8A
100
AcDbEntity
  8
vector
  6
ByLayer
 62
  256
370
   -1
100
AcDbLine
 10
9.247750971682137
 20
4.116334882716654
 11
8.469933512376933
 21
3.338517423411452
  0
LINE
  5
8B
100
AcDbEntity
  8
vector
  6
ByLayer
 62
  256
370
   -1
100
AcDbLine
 10
9.145927595191273
 20
4.218158259207517
 11
8.36811013588607
 21
3.440340799902315
  0
ARC
  5
8C
100
AcDbEntity
  8
vector
  6
ByLayer
 62
  256
370
   -1
100
AcDbCircle
 10
8.419021824131502
 20
3.389429111656884
 40
0.07199999999999999
100
AcDbArc
 50
135
 51
315
  0
ARC
  5
8D
100
AcDbEntity
  8
vector
  6
ByLayer
 62
  256
370
   -1
100
AcDbCircle
 10
9.196839283436704
 20
4.167246570962085
 40
0.07199999999999999
100
AcDbArc
 50
315
 51
135
  0
ARC
  5
8E
100
AcDbEntity
  8
vector
  6
ByLayer
 62
  256
370
   -1
100
AcDbCircle
 10
9.196839283436704
 20
4.425825214724775
 40
0.1
100
AcDbArc
 50
45
 51
135.0000000000001
  0
ARC
  5
8F
100
AcDbEntity
  8
vector
  6
ByLayer
 62
  256
370
   -1
100
AcDbCircle
 10
9.455417927199395
 20
4.167246570962085
 40
0.1
100
AcDbArc
 50
314.9999999999999
 51
45
  0
LINE
  5
90
100
AcDbEntity
  8
vector
  6
ByLayer
 62
  256
370
   -1
100
AcDbLine
 10
7.959402416360247
 20
3.329809703885628
 11
9.12612859443556
 21
4.496535881960941
  0
LINE
  5
91
100
AcDbEntity
  8
vector
  6
ByLayer
 62
  256
370
   -1
100
AcDbLine
 10
9.267549937838927
 20
4.496535916559863
 11
9.52612860531805
 21
4.237957249080741
  0
LINE
  5
92
100
AcDbEntity
  8
vector
  6
ByLayer
 62
  256
370
   -1
100
AcDbLine
 10
8.359402416360247
 20
2.929809703885628
 11
9.52612860531805
 21
4.096535892843431
  0
LINE
  5
93
100
AcDbEntity
  8
vector
  6
ByLayer
 62
  256
370
   -1
100
AcDbLine
 10
8.047790764008564
 20
3.018198051533946
 11
7.959402416360247
 21
3.106586399182265
  0
LINE
  5
94
100
AcDbEntity
  8
vector
  6
ByLayer
 62
  256
370
   -1
100
AcDbLine
 10
7.959402416360247
 20
3.106586399182265
 11
7.959402416360247
 21
3.329809703885628
  0
LINE
  5
95
100
AcDbEntity
  8
vector
  6
ByLayer
 62
  256
370
   -1
100
AcDbLine
 10
7.759402416360247
 20
3.106586399182265
 11
7.759402416360247
 21
3.329809703885628
  0
ARC
  5
96
100
AcDbEntity
  8
vector
  6
ByLayer
 62
  256
370
   -1
100
AcDbCircle
 10
5.756800506338833
 20
3.937436867076458
 40
0.05
100
AcDbArc
 50
134.9999999999998
 51
224.9999999999999
  0
ARC
  5
97
100
AcDbEntity
  8
vector
  6
ByLayer
 62
  256
370
   -1
100
AcDbCircle
 10
5.968932540694798
 20
4.149568901432422
 40
0.05
100
AcDbArc
 50
45
 51
135
  0
ARC
  5
98
100
AcDbEntity
  8
vector
  6
ByLayer
 62
  256
370
   -1
100
AcDbCircle
 10
6.817460678118655
 20
2.876776695296636
 40
0.05
100
AcDbArc
 50
224.9999999999999
 51
315
  0
ARC
  5
99
100
AcDbEntity
  8
vector
  6
ByLayer
 62
  256
370
   -1
100
AcDbCircle
 10
7.029592712474619
 20
3.088908729652601
 40
0.05
100
AcDbArc
 50
315.0000000000001
 51
44.9999999999999
  0
LINE
  5
9A
100
AcDbEntity
  8
vector
  6
ByLayer
 62
  256
370
   -1
100
AcDbLine
 10
5.721445167279506
 20
3.972792206135786
 11
5.933577201635471
 21
4.18492424049175
  0
LINE
  5
9B
100
AcDbEntity
  8
vector
  6
ByLayer
 62
  256
370
   -1
100
AcDbLine
 10
6.004287879754124
 20
4.18492424049175
 11
7.064948051533946
 21
3.124264068711928
  0
LINE
  5
9C
100
AcDbEntity
  8
vector
  6
ByLayer
 62
  256
370
   -1
100
AcDbLine
 10
7.064948051533946
 20
3.053553390593273
 11
6.852816017177982
 21
2.841421356237309
  0
LINE
  5
9D
100
AcDbEntity
  8
vector
  6
ByLayer
 62
  256
370
   -1
100
AcDbLine
 10
6.782105339059327
 20
2.841421356237309
 11
5.721445167279506
 21
3.90208152801713
  0
CIRCLE
  5
9E
100
AcDbEntity
  8
vector
  6
ByLayer
 62
  256
370
   -1
100
AcDbCircle
 10
6.74675
 20
3.159619407771255
 40
0.07199999999999999
  0
CIRCLE
  5
9F
100
AcDbEntity
  8
vector
  6
ByLayer
 62
  256
370
   -1
100
AcDbCircle
 10
6.039643218813453
 20
3.866726188957803
 40
0.07199999999999999
  0
ARC
  5
A0
100
AcDbEntity
  8
vector
  6
ByLayer
 62
  256
370
   -1
100
AcDbCircle
 10
9.749872292025696
 20
4.149568901432422
 40
0.05
100
AcDbArc
 50
44.99999999999984
 51
134.9999999999999
  0
ARC
  5
A1
100
AcDbEntity
  8
vector
  6
ByLayer
 62
  256
370
   -1
100
AcDbCircle
 10
9.96200432638166
 20
3.937436867076457
 40
0.05
100
AcDbArc
 50
315
 51
45
  0
ARC
  5
A2
100
AcDbEntity
  8
vector
  6
ByLayer
 62
  256
370
   -1
100
AcDbCircle
 10
8.689212120245875
 20
3.088908729652601
 40
0.05
100
AcDbArc
 50
134.9999999999999
 51
225.0000000000001
  0
ARC
  5
A3
100
AcDbEntity
  8
vector
  6
ByLayer
 62
  256
370
   -1
100
AcDbCircle
 10
8.901344154601839
 20
2.876776695296636
 40
0.05
100
AcDbArc
 50
225.0000000000001
 51
314.9999999999999
  0
LINE
  5
A4
100
AcDbEntity
  8
vector
  6
ByLayer
 62
  256
370
   -1
100
AcDbLine
 10
9.785227631085023
 20
4.18492424049175
 11
9.997359665440987
 21
3.972792206135785
  0
LINE
  5
A5
100
AcDbEntity
  8
vector
  6
ByLayer
 62
  256
370
   -1
100
AcDbLine
 10
9.997359665440987
 20
3.90208152801713
 11
8.936699493661166
 21
2.841421356237309
  0
LINE
  5
A6
100
AcDbEntity
  8
vector
  6
ByLayer
 62
  256
370
   -1
100
AcDbLine
 10
8.865988815542512
 20
2.841421356237309
 11
8.653856781186548
 21
3.053553390593273
  0
LINE
  5
A7
100
AcDbEntity
  8
vector
  6
ByLayer
 62
  256
370
   -1
100
AcDbLine
 10
8.653856781186548
 20
3.124264068711928
 11
9.714516952966369
 21
4.18492424049175
  0
CIRCLE
  5
A8
100
AcDbEntity
  8
vector
  6
ByLayer
 62
  256
370
   -1
100
AcDbCircle
 10
8.972054832720493
 20
3.159619407771255
 40
0.07199999999999999
  0
CIRCLE
  5
A9
100
AcDbEntity
  8
vector
  6
ByLayer
 62
  256
370
   -1
100
AcDbCircle
 10
9.67916161390704
 20
3.866726188957803
 40
0.07199999999999999
  0
CIRCLE
  5
AA
100
AcDbEntity
  8
vector
  6
ByLayer
 62
  256
370
   -1
100
AcDbCircle
 10
3.259402416360247
 20
4.754809703885628
 40
0.097
  0
CIRCLE
  5
AB
100
AcDbEntity
  8
vector
  6
ByLayer
 62
  256
370
   -1
100
AcDbCircle
 10
1.634402416360247
 20
3.129809703885628
 40
0.097
  0
CIRCLE
  5
AC
100
AcDbEntity
  8
vector
  6
ByLayer
 62
  256
370
   -1
100
AcDbCircle
 10
3.259402416360247
 20
1.504809703885628
 40
0.097
  0
CIRCLE
  5
AD
100
AcDbEntity
  8
vector
  6
ByLayer
 62
  256
370
   -1
100
AcDbCircle
 10
4.884402416360247
 20
3.129809703885628
 40
0.097
  0
LINE
  5
AE
100
AcDbEntity
  8
vector
  6
ByLayer
 62
  256
370
   -1
100
AcDbLine
 10
3.229402416360247
 20
5.429809703885628
 11
3.229402416360247
 21
5.629629697405162
  0
LINE
  5
AF
100
AcDbEntity
  8
vector
  6
ByLayer
 62
  256
370
   -1
100
AcDbLine
 10
3.289402416360247
 20
5.429809703885628
 11
3.289402416360247
 21
5.629629697405161
  0
ARC
  5
B0
100
AcDbEntity
  8
vector
  6
ByLayer
 62
  256
370
   -1
100
AcDbCircle
 10
3.259402416360247
 20
3.129809703885628
 40
2.5
100
AcDbArc
 50
90.68756585641088
 51
89.31243414358914
  0
ARC
  5
B1
100
AcDbEntity
  8
vector
  6
ByLayer
 62
  256
370
   -1
100
AcDbCircle
 10
3.259402416360247
 20
5.429809703885628
 40
0.03
100
AcDbArc
 50
180
 51
360
  0
CIRCLE
  5
B2
100
AcDbEntity
  8
vector
  6
ByLayer
 62
  256
370
   -1
100
AcDbCircle
 10
3.259402416360247
 20
3.129809703885628
 40
0.4
  0
CIRCLE
  5
B3
100
AcDbEntity
  8
vector
  6
ByLayer
 62
  256
370
   -1
100
AcDbCircle
 10
2.587650974233027
 20
3.801561146012848
 40
0.05325
  0
CIRCLE
  5
B4
100
AcDbEntity
  8
vector
  6
ByLayer
 62
  256
370
   -1
100
AcDbCircle
 10
2.234097583639753
 20
4.155114536606122
 40
0.05325
  0
CIRCLE
  5
B5
100
AcDbEntity
  8
vector
  6
ByLayer
 62
  256
370
   -1
100
AcDbCircle
 10
2.587650974233027
 20
2.458058261758408
 40
0.05325
  0
CIRCLE
  5
B6
100
AcDbEntity
  8
vector
  6
ByLayer
 62
  256
370
   -1
100
AcDbCircle
 10
2.234097583639753
 20
2.104504871165134
 40
0.05325
  0
CIRCLE
  5
B7
100
AcDbEntity
  8
vector
  6
ByLayer
 62
  256
370
   -1
100
AcDbCircle
 10
3.931153858487467
 20
2.458058261758408
 40
0.05325
  0
CIRCLE
  5
B8
100
AcDbEntity
  8
vector
  6
ByLayer
 62
  256
370
   -1
100
AcDbCircle
 10
4.284707249080741
 20
2.104504871165134
 40
0.05325
  0
CIRCLE
  5
B9
100
AcDbEntity
  8
vector
  6
ByLayer
 62
  256
370
   -1
100
AcDbCircle
 10
3.931153858487467
 20
3.801561146012848
 40
0.05325
  0
CIRCLE
  5
BA
100
AcDbEntity
  8
vector
  6
ByLayer
 62
  256
370
   -1
100
AcDbCircle
 10
4.284707249080741
 20
4.155114536606122
 40
0.05325
  0
CIRCLE
  5
BB
100
AcDbEntity
  8
vector
  6
ByLayer
 62
  256
370
   -1
100
AcDbCircle
 10
2.34675
 20
3.359619407771255
 40
0.05325
  0
CIRCLE
  5
BC
100
AcDbEntity
  8
vector
  6
ByLayer
 62
  256
370
   -1
100
AcDbCircle
 10
1.639643218813453
 20
4.066726188957803
 40
0.05325
  0
CIRCLE
  5
BD
100
AcDbEntity
  8
vector
  6
ByLayer
 62
  256
370
   -1
100
AcDbCircle
 10
3.02959271247462
 20
4.042462120245874
 40
0.05325
  0
CIRCLE
  5
BE
100
AcDbEntity
  8
vector
  6
ByLayer
 62
  256
370
   -1
100
AcDbCircle
 10
2.322485931288072
 20
4.749568901432422
 40
0.05325
  0
CIRCLE
  5
BF
100
AcDbEntity
  8
vector
  6
ByLayer
 62
  256
370
   -1
100
AcDbCircle
 10
3.489212120245875
 20
4.042462120245875
 40
0.05325
  0
CIRCLE
  5
C0
100
AcDbEntity
  8
vector
  6
ByLayer
 62
  256
370
   -1
100
AcDbCircle
 10
4.196318901432423
 20
4.749568901432422
 40
0.05325
  0
CIRCLE
  5
C1
100
AcDbEntity
  8
vector
  6
ByLayer
 62
  256
370
   -1
100
AcDbCircle
 10
4.172054832720494
 20
3.359619407771255
 40
0.05325
  0
CIRCLE
  5
C2
100
AcDbEntity
  8
vector
  6
ByLayer
 62
  256
370
   -1
100
AcDbCircle
 10
4.879161613907042
 20
4.066726188957803
 40
0.05325
  0
LWPOLYLINE
  5
C3
100
AcDbEntity
  8
lasercutter
  6
ByLayer
 62
  256
370
   -1
100
AcDbPolyline
 90
    4
 70
    1
 43
0
 10
0
 20
0
 10
35
 20
0
 10
35
 20
23
 10
0
 20
23
  0
LWPOLYLINE
  5
C4
100
AcDbEntity
  8
material
  6
ByLayer
 62
  256
370
   -1
100
AcDbPolyline
 90
    4
 70
    1
 43
0
 10
0
 20
0
 10
24
 20
0
 10
24
 20
12
 10
0
 20
12
  0
ENDSEC
  0
SECTION
  2
OBJECTS
  0
DICTIONARY
  5
C
330
0
100
AcDbDictionary
281
    1
  3
ACAD_GROUP
350
D
  0
DICTIONARY
  5
D
330
C
100
AcDbDictionary
281
    1
  0
ENDSEC
  0
EOF
